<svg height="512" viewBox="0 0 59 58" width="512" xmlns="http://www.w3.org/2000/svg"><g fill="none" fill-rule="evenodd"><circle cx="30" cy="29" fill="#f0c419" r="29"/><path d="M46.14 36.74A57.909 57.909 0 0 1 30 39a57.909 57.909 0 0 1-16.14-2.26l-2.8 6.66C13.46 48.48 18.68 54 30 54s16.54-5.52 18.94-10.6z" fill="#802f34"/><path d="M11 13.988a1 1 0 0 1-.949-1.317 6.492 6.492 0 0 1 3.429-4.124 8.112 8.112 0 0 1 5.911.071 1 1 0 0 1-.78 1.842 6.147 6.147 0 0 0-4.319-.085 4.588 4.588 0 0 0-2.343 2.925 1 1 0 0 1-.949.688zm38 0a1 1 0 0 1-.949-.684 4.588 4.588 0 0 0-2.343-2.929 6.151 6.151 0 0 0-4.32.085 1 1 0 0 1-.779-1.842 8.114 8.114 0 0 1 5.911-.071 6.492 6.492 0 0 1 3.429 4.124A1 1 0 0 1 49 13.988z" fill="#e57e25"/><path d="M11.8 42.592A6 6 0 1 1 2.2 35.4c1.972-2.634 6.544-4.4 9.439-5.307a2 2 0 0 1 2.6 1.947c-.053 3.032-.464 7.917-2.439 10.552zm36.4 0a6 6 0 0 0 9.6-7.192c-1.972-2.634-6.544-4.4-9.44-5.307a2 2 0 0 0-2.6 1.947c.054 3.032.464 7.917 2.44 10.552z" fill="#2fa8cc"/><path d="M12 27a1 1 0 0 1-.641-1.767c.066-.055 6.649-5.427 13.2-1.064a1 1 0 1 1-1.11 1.664c-5.29-3.526-10.583.754-10.806.938A1 1 0 0 1 12 27zm36 0a1 1 0 0 1-.639-.23c-.223-.184-5.516-4.465-10.806-.938a1 1 0 1 1-1.11-1.664c6.546-4.365 13.129 1.009 13.2 1.064A1 1 0 0 1 48 27z" fill="#35495e"/><path d="M5.586 41.593a1 1 0 0 1-.707-.293 3 3 0 0 1 0-4.242 1 1 0 0 1 1.414 1.414 1 1 0 0 0 0 1.413 1 1 0 0 1-.706 1.708zm48.829 0a1 1 0 0 1-.707-1.707 1 1 0 0 0 0-1.413 1 1 0 1 1 1.413-1.415 3 3 0 0 1 0 4.242 1 1 0 0 1-.706.293z" fill="#67b9cc"/><path d="M41.86 51.2A23.272 23.272 0 0 1 30 54a23.272 23.272 0 0 1-11.86-2.8A10.445 10.445 0 0 1 26 47c1.6-.126 3.14.644 4 2a4.333 4.333 0 0 1 4-2 10.445 10.445 0 0 1 7.86 4.2z" fill="#ff5364"/><path d="m44.69 37.14-.35 2.49a4 4 0 0 1-2.99 3.32A48.971 48.971 0 0 1 30 44c-3.811.093-7.62-.26-11.35-1.05a4 4 0 0 1-2.99-3.32l-.35-2.49A58.417 58.417 0 0 0 30 39c4.956.006 9.892-.62 14.69-1.86z" fill="#ecf0f1"/></g></svg>